# xmcd CD database file generated by Grip 3.0.1
# 
# Track frame offsets:
#       150
#       19905
#       38344
#       63421
#       77702
#       94338
#       121637
#       135059
#       149894
#       163186
#       180088
#       193809
#       218467
# 
# Disc length: 3055 seconds
# 
# Revision: 2
# Processed by: cddbd v1.5.1PL2 Copyright (c) Steve Scherf et al.
# Submitted via: Grip 3.0.1
# 
DISCID=a50bed0d
DTITLE=Racky Thomas - Troubled all the Time
DYEAR=2000
DGENRE=Blues
TTITLE0=Ain't It Lonesome
TTITLE1=Oh My
TTITLE2=All By Myself
TTITLE3=One Thing Mama
TTITLE4=Blues Keep Me Troubled
TTITLE5=Your Love To Me
TTITLE6=All I Need Is you
TTITLE7=She Ain't Your Average Ordinary Dame
TTITLE8=Eyes Like Diamonds
TTITLE9=Sweet Little Angel Child
TTITLE10=Robbing Peter To Pay Paul
TTITLE11=Can't Win For Losin'
TTITLE12=John The Revelator
EXTD=
EXTT0=
EXTT1=
EXTT2=
EXTT3=
EXTT4=
EXTT5=
EXTT6=
EXTT7=
EXTT8=
EXTT9=
EXTT10=
EXTT11=
EXTT12=
PLAYORDER=
